<svg width="122" height="122" viewBox="0 0 122 122" fill="none" xmlns="http://www.w3.org/2000/svg">
<g id="Group">
<g id="Group_2">
<path id="Vector" d="M0 61C0 94.5047 27.4953 122 61 122C94.5047 122 122 94.5047 122 61C122 29.9483 98.3834 4.05828 68.254 0.433714C64.2689 -0.0456858 61 3.25381 61 7.26758C61 11.2814 64.2746 14.4754 68.2398 15.0984C90.4339 18.5857 107.465 37.8421 107.465 61C107.465 86.62 86.62 107.465 61 107.465C35.38 107.465 14.5352 86.62 14.5352 61C14.5352 52.1323 17.0324 43.8368 21.3605 36.7796C23.4662 33.3461 23.1269 28.7573 20.028 26.1843C16.9843 23.657 12.4329 24.0283 10.2358 27.3184C3.77652 36.9911 0 48.5828 0 61Z" fill="url(#paint0_linear_55_1184)"/>
</g>
</g>
<defs>
<linearGradient id="paint0_linear_55_1184" x1="113.586" y1="21.8759" x2="-16.4069" y2="45.0138" gradientUnits="userSpaceOnUse">
<stop stop-color="#4614E8"/>
<stop offset="1" stop-color="#BCA7FF"/>
</linearGradient>
</defs>
</svg>
